<svg width="48" height="48" viewBox="0 0 48 48" fill="none" xmlns="http://www.w3.org/2000/svg">
<rect width="48" height="48" rx="24" fill="#DBEAFE"/>
<path d="M19.5 16C18.6719 16 18 16.6719 18 17.5V30.5C18 31.3281 18.6719 32 19.5 32H22.5V29.5C22.5 28.6719 23.1719 28 24 28C24.8281 28 25.5 28.6719 25.5 29.5V32H28.5C29.3281 32 30 31.3281 30 30.5V17.5C30 16.6719 29.3281 16 28.5 16H19.5ZM20 23.5C20 23.225 20.225 23 20.5 23H21.5C21.775 23 22 23.225 22 23.5V24.5C22 24.775 21.775 25 21.5 25H20.5C20.225 25 20 24.775 20 24.5V23.5ZM23.5 23H24.5C24.775 23 25 23.225 25 23.5V24.5C25 24.775 24.775 25 24.5 25H23.5C23.225 25 23 24.775 23 24.5V23.5C23 23.225 23.225 23 23.5 23ZM26 23.5C26 23.225 26.225 23 26.5 23H27.5C27.775 23 28 23.225 28 23.5V24.5C28 24.775 27.775 25 27.5 25H26.5C26.225 25 26 24.775 26 24.5V23.5ZM20.5 19H21.5C21.775 19 22 19.225 22 19.5V20.5C22 20.775 21.775 21 21.5 21H20.5C20.225 21 20 20.775 20 20.5V19.5C20 19.225 20.225 19 20.5 19ZM23 19.5C23 19.225 23.225 19 23.5 19H24.5C24.775 19 25 19.225 25 19.5V20.5C25 20.775 24.775 21 24.5 21H23.5C23.225 21 23 20.775 23 20.5V19.5ZM26.5 19H27.5C27.775 19 28 19.225 28 19.5V20.5C28 20.775 27.775 21 27.5 21H26.5C26.225 21 26 20.775 26 20.5V19.5C26 19.225 26.225 19 26.5 19Z" fill="#1D4ED8"/>
</svg>
