<svg width="28" height="24" viewBox="0 0 28 24" fill="none" xmlns="http://www.w3.org/2000/svg">
<path d="M12.365 22.1016C12.8713 22.2797 13.415 21.9094 13.415 21.375V3.68437C13.415 3.4875 13.34 3.29062 13.1807 3.16875C12.2619 2.4375 10.1525 1.5 7.41504 1.5C5.04785 1.5 2.83535 2.12344 1.51348 2.62969C0.983789 2.83594 0.665039 3.36094 0.665039 3.92813V21.2859C0.665039 21.8438 1.26504 22.2328 1.79473 22.0594C3.27129 21.5672 5.61035 21 7.41504 21C9.0041 21 11.1182 21.6562 12.365 22.1016ZM15.965 22.1016C17.2119 21.6562 19.326 21 20.915 21C22.7197 21 25.0588 21.5672 26.5354 22.0594C27.065 22.2375 27.665 21.8438 27.665 21.2859V3.92813C27.665 3.36094 27.3463 2.83594 26.8166 2.63438C25.4947 2.12344 23.2822 1.5 20.915 1.5C18.1775 1.5 16.0682 2.4375 15.1494 3.16875C14.9947 3.29062 14.915 3.4875 14.915 3.68437V21.375C14.915 21.9094 15.4635 22.2797 15.965 22.1016Z" fill="white"/>
</svg>
