<svg width="17" height="20" viewBox="0 0 17 20" fill="none" xmlns="http://www.w3.org/2000/svg">
<path d="M4.15991 2.75C4.6439 2.75 5.03491 3.14102 5.03491 3.625V4.5H8.53491V3.625C8.53491 3.14102 8.92593 2.75 9.40991 2.75C9.8939 2.75 10.2849 3.14102 10.2849 3.625V4.5H11.5974C12.322 4.5 12.9099 5.08789 12.9099 5.8125V7.125H0.659912V5.8125C0.659912 5.08789 1.2478 4.5 1.97241 4.5H3.28491V3.625C3.28491 3.14102 3.67593 2.75 4.15991 2.75ZM0.659912 8H12.9099V15.4375C12.9099 16.1621 12.322 16.75 11.5974 16.75H1.97241C1.2478 16.75 0.659912 16.1621 0.659912 15.4375V8ZM9.65601 11.0898C9.91304 10.8328 9.91304 10.4172 9.65601 10.1629C9.39897 9.90859 8.98335 9.90586 8.72905 10.1629L6.1314 12.7605L4.84624 11.4754C4.58921 11.2184 4.17358 11.2184 3.91929 11.4754C3.66499 11.7324 3.66226 12.148 3.91929 12.4023L5.66929 14.1523C5.92632 14.4094 6.34194 14.4094 6.59624 14.1523L9.65601 11.0898Z" fill="#6B7280"/>
</svg>
