<svg width="16" height="20" viewBox="0 0 16 20" fill="none" xmlns="http://www.w3.org/2000/svg">
<path d="M1.97754 2.75C1.25293 2.75 0.665039 3.33789 0.665039 4.0625V15.4375C0.665039 16.1621 1.25293 16.75 1.97754 16.75H4.60254V14.5625C4.60254 13.8379 5.19043 13.25 5.91504 13.25C6.63965 13.25 7.22754 13.8379 7.22754 14.5625V16.75H9.85254C10.5771 16.75 11.165 16.1621 11.165 15.4375V4.0625C11.165 3.33789 10.5771 2.75 9.85254 2.75H1.97754ZM2.41504 9.3125C2.41504 9.07188 2.61191 8.875 2.85254 8.875H3.72754C3.96816 8.875 4.16504 9.07188 4.16504 9.3125V10.1875C4.16504 10.4281 3.96816 10.625 3.72754 10.625H2.85254C2.61191 10.625 2.41504 10.4281 2.41504 10.1875V9.3125ZM5.47754 8.875H6.35254C6.59316 8.875 6.79004 9.07188 6.79004 9.3125V10.1875C6.79004 10.4281 6.59316 10.625 6.35254 10.625H5.47754C5.23691 10.625 5.04004 10.4281 5.04004 10.1875V9.3125C5.04004 9.07188 5.23691 8.875 5.47754 8.875ZM7.66504 9.3125C7.66504 9.07188 7.86191 8.875 8.10254 8.875H8.97754C9.21816 8.875 9.41504 9.07188 9.41504 9.3125V10.1875C9.41504 10.4281 9.21816 10.625 8.97754 10.625H8.10254C7.86191 10.625 7.66504 10.4281 7.66504 10.1875V9.3125ZM2.85254 5.375H3.72754C3.96816 5.375 4.16504 5.57188 4.16504 5.8125V6.6875C4.16504 6.92812 3.96816 7.125 3.72754 7.125H2.85254C2.61191 7.125 2.41504 6.92812 2.41504 6.6875V5.8125C2.41504 5.57188 2.61191 5.375 2.85254 5.375ZM5.04004 5.8125C5.04004 5.57188 5.23691 5.375 5.47754 5.375H6.35254C6.59316 5.375 6.79004 5.57188 6.79004 5.8125V6.6875C6.79004 6.92812 6.59316 7.125 6.35254 7.125H5.47754C5.23691 7.125 5.04004 6.92812 5.04004 6.6875V5.8125ZM8.10254 5.375H8.97754C9.21816 5.375 9.41504 5.57188 9.41504 5.8125V6.6875C9.41504 6.92812 9.21816 7.125 8.97754 7.125H8.10254C7.86191 7.125 7.66504 6.92812 7.66504 6.6875V5.8125C7.66504 5.57188 7.86191 5.375 8.10254 5.375Z" fill="#6B7280"/>
</svg>
