<svg width="17" height="20" viewBox="0 0 17 20" fill="none" xmlns="http://www.w3.org/2000/svg">
<path d="M7.39133 16.6312L7.31321 16.5593L1.83821 11.475C0.878833 10.5843 0.335083 9.33433 0.335083 8.02496V7.92183C0.335083 5.72183 1.89758 3.83433 4.06008 3.42183C5.29133 3.18433 6.55071 3.46871 7.55383 4.17496C7.83508 4.37496 8.09758 4.60621 8.33508 4.87183C8.46633 4.72183 8.60696 4.58433 8.75696 4.45621C8.87258 4.35621 8.99133 4.26246 9.11633 4.17496C10.1195 3.46871 11.3788 3.18433 12.6101 3.41871C14.7726 3.83121 16.3351 5.72183 16.3351 7.92183V8.02496C16.3351 9.33433 15.7913 10.5843 14.832 11.475L9.35696 16.5593L9.27883 16.6312C9.02258 16.8687 8.68508 17.0031 8.33508 17.0031C7.98508 17.0031 7.64758 16.8718 7.39133 16.6312ZM7.80696 6.53121C7.79446 6.52183 7.78508 6.50933 7.77571 6.49683L7.21946 5.87183L7.21633 5.86871C6.49446 5.05933 5.40383 4.69058 4.34133 4.89371C2.88508 5.17183 1.83508 6.44058 1.83508 7.92183V8.02496C1.83508 8.91558 2.20696 9.76871 2.86008 10.375L8.33508 15.4593L13.8101 10.375C14.4632 9.76871 14.8351 8.91558 14.8351 8.02496V7.92183C14.8351 6.44371 13.7851 5.17183 12.332 4.89371C11.2695 4.69058 10.1757 5.06246 9.45696 5.86871C9.45696 5.86871 9.45696 5.86871 9.45383 5.87183C9.45071 5.87496 9.45383 5.87183 9.45071 5.87496L8.89446 6.49996C8.88508 6.51246 8.87258 6.52183 8.86321 6.53433C8.72258 6.67496 8.53196 6.75308 8.33508 6.75308C8.13821 6.75308 7.94758 6.67496 7.80696 6.53433V6.53121Z" fill="#374151"/>
</svg>
