<svg width="30" height="24" viewBox="0 0 30 24" fill="none" xmlns="http://www.w3.org/2000/svg">
<path d="M9.75491 16.5C15.1408 16.5 19.5049 12.8062 19.5049 8.25C19.5049 3.69375 15.1408 0 9.75491 0C4.36897 0 0.00490755 3.69375 0.00490755 8.25C0.00490755 10.0594 0.69397 11.7328 1.86116 13.0969C1.69709 13.5375 1.45335 13.9266 1.19553 14.2547C0.970533 14.5453 0.740845 14.7703 0.572095 14.925C0.48772 15 0.417408 15.0609 0.370533 15.0984C0.347095 15.1172 0.328345 15.1312 0.31897 15.1359L0.309595 15.1453C0.0517825 15.3375 -0.0607174 15.675 0.0424075 15.9797C0.145533 16.2844 0.43147 16.5 0.754908 16.5C1.77678 16.5 2.80803 16.2375 3.66585 15.9141C4.0971 15.75 4.50022 15.5672 4.85178 15.3797C6.29085 16.0922 7.96428 16.5 9.75491 16.5ZM21.0049 8.25C21.0049 13.5141 16.3596 17.4797 10.8565 17.9531C11.9955 21.4406 15.7737 24 20.2549 24C22.0455 24 23.719 23.5922 25.1627 22.8797C25.5143 23.0672 25.9127 23.25 26.344 23.4141C27.2018 23.7375 28.233 24 29.2549 24C29.5783 24 29.869 23.7891 29.9674 23.4797C30.0658 23.1703 29.958 22.8328 29.6955 22.6406L29.6862 22.6312C29.6768 22.6219 29.658 22.6125 29.6346 22.5938C29.5877 22.5562 29.5174 22.5 29.433 22.4203C29.2643 22.2656 29.0346 22.0406 28.8096 21.75C28.5518 21.4219 28.308 21.0281 28.144 20.5922C29.3112 19.2328 30.0002 17.5594 30.0002 15.7453C30.0002 11.3953 26.0205 7.82812 20.9721 7.51875C20.9908 7.75781 21.0002 8.00156 21.0002 8.24531L21.0049 8.25Z" fill="white"/>
</svg>
