<svg width="19" height="20" viewBox="0 0 19 20" fill="none" xmlns="http://www.w3.org/2000/svg">
<path d="M9.37673 3.00708C9.03494 2.66528 8.47986 2.66528 8.13806 3.00708L4.85681 6.28833C4.51501 6.63013 4.51501 7.1852 4.85681 7.527L5.29431 7.9645C5.63611 8.3063 6.19119 8.3063 6.53298 7.9645L6.64236 7.85513L9.56267 10.7727L9.4533 10.8821C9.1115 11.2239 9.1115 11.779 9.4533 12.1208L9.8908 12.5583C10.2326 12.9 10.7877 12.9 11.1295 12.5583L14.4107 9.277C14.7525 8.9352 14.7525 8.38013 14.4107 8.03833L13.9732 7.60083C13.6314 7.25903 13.0763 7.25903 12.7345 7.60083L12.6252 7.71021L9.70486 4.78989L9.81423 4.68052C10.156 4.33872 10.156 3.78364 9.81423 3.44185L9.37673 3.00435V3.00708ZM5.22048 10.8821C4.87869 10.5403 4.32361 10.5403 3.98181 10.8821L0.919312 13.9446C0.577515 14.2864 0.577515 14.8415 0.919312 15.1833L2.23181 16.4958C2.57361 16.8375 3.12869 16.8375 3.47048 16.4958L6.53298 13.4333C6.87478 13.0915 6.87478 12.5364 6.53298 12.1946L6.4947 12.1563L8.10252 10.5512L6.86384 9.31255L5.25876 10.9176L5.22048 10.8793V10.8821Z" fill="white"/>
</svg>
