<svg width="31" height="24" viewBox="0 0 31 24" fill="none" xmlns="http://www.w3.org/2000/svg">
<path d="M7.08496 0C8.07952 0 9.03335 0.395088 9.73661 1.09835C10.4399 1.80161 10.835 2.75544 10.835 3.75C10.835 4.74456 10.4399 5.69839 9.73661 6.40165C9.03335 7.10491 8.07952 7.5 7.08496 7.5C6.0904 7.5 5.13657 7.10491 4.43331 6.40165C3.73005 5.69839 3.33496 4.74456 3.33496 3.75C3.33496 2.75544 3.73005 1.80161 4.43331 1.09835C5.13657 0.395088 6.0904 0 7.08496 0ZM24.335 0C25.3295 0 26.2833 0.395088 26.9866 1.09835C27.6899 1.80161 28.085 2.75544 28.085 3.75C28.085 4.74456 27.6899 5.69839 26.9866 6.40165C26.2833 7.10491 25.3295 7.5 24.335 7.5C23.3404 7.5 22.3866 7.10491 21.6833 6.40165C20.98 5.69839 20.585 4.74456 20.585 3.75C20.585 2.75544 20.98 1.80161 21.6833 1.09835C22.3866 0.395088 23.3404 0 24.335 0ZM0.334961 14.0016C0.334961 11.2406 2.57559 9 5.33652 9H7.33809C8.0834 9 8.79121 9.16406 9.42871 9.45469C9.36777 9.79219 9.33965 10.1438 9.33965 10.5C9.33965 12.2906 10.1271 13.8984 11.3693 15C11.36 15 11.3506 15 11.3365 15H1.3334C0.784961 15 0.334961 14.55 0.334961 14.0016ZM19.3334 15C19.324 15 19.3146 15 19.3006 15C20.5475 13.8984 21.3303 12.2906 21.3303 10.5C21.3303 10.1438 21.2975 9.79688 21.2412 9.45469C21.8787 9.15938 22.5865 9 23.3318 9H25.3334C28.0943 9 30.335 11.2406 30.335 14.0016C30.335 14.5547 29.885 15 29.3365 15H19.3334ZM10.835 10.5C10.835 9.30653 11.3091 8.16193 12.153 7.31802C12.9969 6.47411 14.1415 6 15.335 6C16.5284 6 17.673 6.47411 18.5169 7.31802C19.3609 8.16193 19.835 9.30653 19.835 10.5C19.835 11.6935 19.3609 12.8381 18.5169 13.682C17.673 14.5259 16.5284 15 15.335 15C14.1415 15 12.9969 14.5259 12.153 13.682C11.3091 12.8381 10.835 11.6935 10.835 10.5ZM6.33496 22.7484C6.33496 19.2984 9.1334 16.5 12.5834 16.5H18.0865C21.5365 16.5 24.335 19.2984 24.335 22.7484C24.335 23.4375 23.7771 24 23.0834 24H7.58652C6.89746 24 6.33496 23.4422 6.33496 22.7484Z" fill="white"/>
</svg>
