<svg width="48" height="48" viewBox="0 0 48 48" fill="none" xmlns="http://www.w3.org/2000/svg">
<rect width="48" height="48" rx="24" fill="#DCFCE7"/>
<path d="M21 17C20.4469 17 20 17.4469 20 18V24H19C18.4469 24 18 24.4469 18 25C18 25.5531 18.4469 26 19 26H20V27H19C18.4469 27 18 27.4469 18 28C18 28.5531 18.4469 29 19 29H20V30C20 30.5531 20.4469 31 21 31C21.5531 31 22 30.5531 22 30V29H27C27.5531 29 28 28.5531 28 28C28 27.4469 27.5531 27 27 27H22V26H25.5C27.9844 26 30 23.9844 30 21.5C30 19.0156 27.9844 17 25.5 17H21ZM25.5 24H22V19H25.5C26.8813 19 28 20.1187 28 21.5C28 22.8813 26.8813 24 25.5 24Z" fill="#10B981"/>
</svg>
