<svg width="35" height="40" viewBox="0 0 35 40" fill="none" xmlns="http://www.w3.org/2000/svg">
<rect x="0.665039" width="33.89" height="40" rx="16.945" fill="#DBEAFE"/>
<path d="M22.61 18.5C22.61 19.9344 22.1444 21.2594 21.36 22.3344L25.3162 26.2937C25.7069 26.6844 25.7069 27.3188 25.3162 27.7094C24.9256 28.1 24.2912 28.1 23.9006 27.7094L19.9444 23.75C18.8694 24.5375 17.5444 25 16.11 25C12.5194 25 9.60999 22.0906 9.60999 18.5C9.60999 14.9094 12.5194 12 16.11 12C19.7006 12 22.61 14.9094 22.61 18.5ZM16.11 23C16.7009 23 17.2861 22.8836 17.8321 22.6575C18.378 22.4313 18.8741 22.0998 19.292 21.682C19.7098 21.2641 20.0413 20.768 20.2674 20.2221C20.4936 19.6761 20.61 19.0909 20.61 18.5C20.61 17.9091 20.4936 17.3239 20.2674 16.7779C20.0413 16.232 19.7098 15.7359 19.292 15.318C18.8741 14.9002 18.378 14.5687 17.8321 14.3425C17.2861 14.1164 16.7009 14 16.11 14C15.519 14 14.9339 14.1164 14.3879 14.3425C13.8419 14.5687 13.3459 14.9002 12.928 15.318C12.5101 15.7359 12.1787 16.232 11.9525 16.7779C11.7264 17.3239 11.61 17.9091 11.61 18.5C11.61 19.0909 11.7264 19.6761 11.9525 20.2221C12.1787 20.768 12.5101 21.2641 12.928 21.682C13.3459 22.0998 13.8419 22.4313 14.3879 22.6575C14.9339 22.8836 15.519 23 16.11 23Z" fill="#1D4ED8"/>
</svg>
