<svg width="15" height="15" viewBox="0 0 15 15" fill="none" xmlns="http://www.w3.org/2000/svg">
<path d="M7.33496 14.75C9.19148 14.75 10.972 14.0125 12.2847 12.6997C13.5975 11.387 14.335 9.60652 14.335 7.75C14.335 5.89348 13.5975 4.11301 12.2847 2.80025C10.972 1.4875 9.19148 0.75 7.33496 0.75C5.47845 0.75 3.69797 1.4875 2.38521 2.80025C1.07246 4.11301 0.334961 5.89348 0.334961 7.75C0.334961 9.60652 1.07246 11.387 2.38521 12.6997C3.69797 14.0125 5.47845 14.75 7.33496 14.75ZM10.4248 6.46484L6.9248 9.96484C6.66777 10.2219 6.25215 10.2219 5.99785 9.96484L4.24785 8.21484C3.99082 7.95781 3.99082 7.54219 4.24785 7.28789C4.50488 7.03359 4.92051 7.03086 5.1748 7.28789L6.45996 8.57305L9.49512 5.53516C9.75215 5.27812 10.1678 5.27812 10.4221 5.53516C10.6764 5.79219 10.6791 6.20781 10.4221 6.46211L10.4248 6.46484Z" fill="white"/>
</svg>
