<svg width="19" height="20" viewBox="0 0 19 20" fill="none" xmlns="http://www.w3.org/2000/svg">
<path d="M7.65991 2.75C9.51643 2.75 11.2969 3.4875 12.6097 4.80025C13.9224 6.11301 14.6599 7.89348 14.6599 9.75C14.6599 11.6065 13.9224 13.387 12.6097 14.6997C11.2969 16.0125 9.51643 16.75 7.65991 16.75C5.8034 16.75 4.02292 16.0125 2.71016 14.6997C1.39741 13.387 0.659912 11.6065 0.659912 9.75C0.659912 7.89348 1.39741 6.11301 2.71016 4.80025C4.02292 3.4875 5.8034 2.75 7.65991 2.75ZM7.00366 6.03125V9.75C7.00366 9.96875 7.11304 10.1738 7.29624 10.2969L9.92124 12.0469C10.222 12.2492 10.6294 12.1672 10.8318 11.8637C11.0341 11.5602 10.9521 11.1555 10.6486 10.9531L8.31616 9.4V6.03125C8.31616 5.66758 8.02358 5.375 7.65991 5.375C7.29624 5.375 7.00366 5.66758 7.00366 6.03125Z" fill="#6B7280"/>
</svg>
