<svg width="164" height="32" viewBox="0 0 164 32" fill="none" xmlns="http://www.w3.org/2000/svg">
<path d="M0 6.25C0 5.00781 1.00781 4 2.25 4H15.75C16.9922 4 18 5.00781 18 6.25V13.7031L16.0125 14.5H14.25H12.75C12.3375 14.5 12 14.8375 12 15.25V16.75V17.8844V18.25C12 18.2922 12.0047 18.3297 12.0094 18.3719C12.1172 21.0953 13.1391 25.1594 16.6359 27.8172C16.3641 27.9344 16.0641 28 15.75 28H11.25V24.25C11.25 23.0078 10.2422 22 9 22C7.75781 22 6.75 23.0078 6.75 24.25V28H2.25C1.00781 28 0 26.9922 0 25.75V6.25ZM3.75 14.5C3.3375 14.5 3 14.8375 3 15.25V16.75C3 17.1625 3.3375 17.5 3.75 17.5H5.25C5.6625 17.5 6 17.1625 6 16.75V15.25C6 14.8375 5.6625 14.5 5.25 14.5H3.75ZM7.5 15.25V16.75C7.5 17.1625 7.8375 17.5 8.25 17.5H9.75C10.1625 17.5 10.5 17.1625 10.5 16.75V15.25C10.5 14.8375 10.1625 14.5 9.75 14.5H8.25C7.8375 14.5 7.5 14.8375 7.5 15.25ZM3 9.25V10.75C3 11.1625 3.3375 11.5 3.75 11.5H5.25C5.6625 11.5 6 11.1625 6 10.75V9.25C6 8.8375 5.6625 8.5 5.25 8.5H3.75C3.3375 8.5 3 8.8375 3 9.25ZM8.25 8.5C7.8375 8.5 7.5 8.8375 7.5 9.25V10.75C7.5 11.1625 7.8375 11.5 8.25 11.5H9.75C10.1625 11.5 10.5 11.1625 10.5 10.75V9.25C10.5 8.8375 10.1625 8.5 9.75 8.5H8.25ZM12 9.25V10.75C12 11.1625 12.3375 11.5 12.75 11.5H14.25C14.6625 11.5 15 11.1625 15 10.75V9.25C15 8.8375 14.6625 8.5 14.25 8.5H12.75C12.3375 8.5 12 8.8375 12 9.25ZM19.8328 14.5797C20.1 14.4719 20.4 14.4719 20.6672 14.5797L26.2922 16.8297C26.7188 17.0031 27 17.4156 27 17.875C27 20.8422 25.7859 25.7875 20.6813 27.9156C20.4047 28.0328 20.0906 28.0328 19.8141 27.9156C14.7141 25.7875 13.5 20.8422 13.5 17.875C13.5 17.4156 13.7812 17.0031 14.2078 16.8297L19.8328 14.5797ZM24.7219 18.625L20.25 16.8344V25.6422C23.4469 24.0953 24.5391 21.0016 24.7219 18.625Z" fill="#1D4ED8"/>
<path d="M41.407 10.5881V7.54545H55.7422V10.5881H50.3984V25H46.7507V10.5881H41.407ZM56.6754 29.9091V11.9091H60.255V14.108H60.4169C60.576 13.7557 60.8061 13.3977 61.1072 13.0341C61.4141 12.6648 61.8118 12.358 62.3004 12.1136C62.7947 11.8636 63.4084 11.7386 64.1413 11.7386C65.0959 11.7386 65.9766 11.9886 66.7834 12.4886C67.5902 12.983 68.2351 13.7301 68.718 14.7301C69.201 15.7244 69.4425 16.9716 69.4425 18.4716C69.4425 19.9318 69.2067 21.1648 68.7351 22.1705C68.2692 23.1705 67.6328 23.929 66.826 24.446C66.0249 24.9574 65.1271 25.2131 64.1328 25.2131C63.4283 25.2131 62.8288 25.0966 62.3345 24.8636C61.8459 24.6307 61.4453 24.3381 61.1328 23.9858C60.8203 23.6278 60.5817 23.267 60.4169 22.9034H60.3061V29.9091H56.6754ZM60.2294 18.4545C60.2294 19.233 60.3374 19.9119 60.5533 20.4915C60.7692 21.071 61.0817 21.5227 61.4908 21.8466C61.8999 22.1648 62.397 22.3239 62.9822 22.3239C63.5732 22.3239 64.0732 22.1619 64.4822 21.8381C64.8913 21.5085 65.201 21.054 65.4112 20.4744C65.6271 19.8892 65.7351 19.2159 65.7351 18.4545C65.7351 17.6989 65.63 17.0341 65.4197 16.4602C65.2095 15.8864 64.8999 15.4375 64.4908 15.1136C64.0817 14.7898 63.5788 14.6278 62.9822 14.6278C62.3913 14.6278 61.8913 14.7841 61.4822 15.0966C61.0788 15.4091 60.7692 15.8523 60.5533 16.4261C60.3374 17 60.2294 17.6761 60.2294 18.4545ZM75.5959 25.2472C74.7607 25.2472 74.0163 25.1023 73.3629 24.8125C72.7095 24.517 72.1925 24.0824 71.8118 23.5085C71.4368 22.929 71.2493 22.2074 71.2493 21.3438C71.2493 20.6165 71.3828 20.0057 71.6499 19.5114C71.9169 19.017 72.2805 18.6193 72.7408 18.3182C73.201 18.017 73.7237 17.7898 74.3089 17.6364C74.8999 17.483 75.5192 17.375 76.1669 17.3125C76.9283 17.233 77.5419 17.1591 78.0078 17.0909C78.4737 17.017 78.8118 16.9091 79.022 16.767C79.2322 16.625 79.3374 16.4148 79.3374 16.1364V16.0852C79.3374 15.5455 79.1669 15.1278 78.826 14.8324C78.4908 14.5369 78.0135 14.3892 77.3942 14.3892C76.7408 14.3892 76.2209 14.5341 75.8345 14.8239C75.4482 15.108 75.1925 15.4659 75.0675 15.8977L71.7095 15.625C71.88 14.8295 72.2152 14.142 72.7152 13.5625C73.2152 12.9773 73.8601 12.5284 74.6499 12.2159C75.4453 11.8977 76.3658 11.7386 77.4112 11.7386C78.1385 11.7386 78.8345 11.8239 79.4993 11.9943C80.1697 12.1648 80.7635 12.429 81.2805 12.7869C81.8033 13.1449 82.2152 13.6051 82.5163 14.1676C82.8175 14.7244 82.968 15.392 82.968 16.1705V25H79.5249V23.1847H79.4226C79.2124 23.5938 78.9311 23.9545 78.5788 24.267C78.2266 24.5739 77.8033 24.8153 77.3089 24.9915C76.8146 25.1619 76.2436 25.2472 75.5959 25.2472ZM76.6357 22.7415C77.1697 22.7415 77.6413 22.6364 78.0504 22.4261C78.4595 22.2102 78.7805 21.9205 79.0135 21.5568C79.2464 21.1932 79.3629 20.7812 79.3629 20.321V18.9318C79.2493 19.0057 79.093 19.0739 78.8942 19.1364C78.701 19.1932 78.4822 19.2472 78.2379 19.2983C77.9936 19.3437 77.7493 19.3864 77.505 19.4261C77.2607 19.4602 77.0391 19.4915 76.8402 19.5199C76.4141 19.5824 76.0419 19.6818 75.7237 19.8182C75.4055 19.9545 75.1584 20.1392 74.9822 20.3722C74.8061 20.5994 74.718 20.8835 74.718 21.2244C74.718 21.7188 74.897 22.0966 75.255 22.358C75.6186 22.6136 76.0788 22.7415 76.6357 22.7415ZM91.6996 25.2557C90.3587 25.2557 89.2053 24.9716 88.2393 24.4034C87.2791 23.8295 86.5405 23.0341 86.0234 22.017C85.5121 21 85.2564 19.8295 85.2564 18.5057C85.2564 17.1648 85.5149 15.9886 86.032 14.9773C86.5547 13.9602 87.2962 13.1676 88.2564 12.5994C89.2166 12.0256 90.3587 11.7386 91.6825 11.7386C92.8246 11.7386 93.8246 11.946 94.6825 12.3608C95.5405 12.7756 96.2195 13.358 96.7195 14.108C97.2195 14.858 97.495 15.7386 97.5462 16.75H94.12C94.0234 16.0966 93.7678 15.571 93.353 15.1733C92.9439 14.7699 92.407 14.5682 91.7422 14.5682C91.1797 14.5682 90.6882 14.7216 90.2678 15.0284C89.853 15.3295 89.5291 15.7699 89.2962 16.3494C89.0632 16.929 88.9467 17.6307 88.9467 18.4545C88.9467 19.2898 89.0604 20 89.2876 20.5852C89.5206 21.1705 89.8473 21.6165 90.2678 21.9233C90.6882 22.2301 91.1797 22.3835 91.7422 22.3835C92.157 22.3835 92.5291 22.2983 92.8587 22.1278C93.1939 21.9574 93.4695 21.7102 93.6854 21.3864C93.907 21.0568 94.0518 20.6619 94.12 20.2017H97.5462C97.4893 21.2017 97.2166 22.0824 96.728 22.8438C96.245 23.5994 95.5774 24.1903 94.7251 24.6165C93.8729 25.0426 92.8643 25.2557 91.6996 25.2557ZM98.978 14.7642V11.9091H110.842V14.7642H106.623V25H103.163V14.7642H98.978ZM112.165 29.2102V22.0597H113.349C113.753 21.7699 114.122 21.3608 114.457 20.8324C114.793 20.2983 115.08 19.5625 115.318 18.625C115.557 17.6818 115.727 16.4489 115.83 14.9261L116.324 7.54545H127.872V22.0597H129.781V29.1932H126.236V25H115.71V29.2102H112.165ZM117.611 22.0597H124.327V10.5881H119.648L119.375 14.9261C119.301 16.0795 119.179 17.1023 119.009 17.9943C118.844 18.8864 118.642 19.6676 118.403 20.3381C118.17 21.0028 117.906 21.5767 117.611 22.0597ZM137.871 25.2557C136.548 25.2557 135.403 24.9744 134.437 24.4119C133.477 23.8437 132.735 23.054 132.212 22.0426C131.69 21.0256 131.428 19.8466 131.428 18.5057C131.428 17.1534 131.69 15.9716 132.212 14.9602C132.735 13.9432 133.477 13.1534 134.437 12.5909C135.403 12.0227 136.548 11.7386 137.871 11.7386C139.195 11.7386 140.337 12.0227 141.298 12.5909C142.263 13.1534 143.008 13.9432 143.531 14.9602C144.053 15.9716 144.315 17.1534 144.315 18.5057C144.315 19.8466 144.053 21.0256 143.531 22.0426C143.008 23.054 142.263 23.8437 141.298 24.4119C140.337 24.9744 139.195 25.2557 137.871 25.2557ZM137.888 22.4432C138.491 22.4432 138.994 22.2727 139.397 21.9318C139.8 21.5852 140.104 21.1136 140.309 20.517C140.519 19.9205 140.624 19.2415 140.624 18.4801C140.624 17.7188 140.519 17.0398 140.309 16.4432C140.104 15.8466 139.8 15.375 139.397 15.0284C138.994 14.6818 138.491 14.5085 137.888 14.5085C137.281 14.5085 136.769 14.6818 136.354 15.0284C135.945 15.375 135.636 15.8466 135.425 16.4432C135.221 17.0398 135.119 17.7188 135.119 18.4801C135.119 19.2415 135.221 19.9205 135.425 20.517C135.636 21.1136 135.945 21.5852 136.354 21.9318C136.769 22.2727 137.281 22.4432 137.888 22.4432ZM154.414 20.9858L157.96 11.9091H160.721L155.616 25H153.204L148.218 11.9091H150.971L154.414 20.9858ZM150.144 11.9091V25H146.675V11.9091H150.144ZM158.863 25V11.9091H162.289V25H158.863Z" fill="#1D4ED8"/>
</svg>
