<svg width="14" height="15" viewBox="0 0 14 15" fill="none" xmlns="http://www.w3.org/2000/svg">
<path d="M4.33496 0.75C4.81895 0.75 5.20996 1.14102 5.20996 1.625V2.5H8.70996V1.625C8.70996 1.14102 9.10098 0.75 9.58496 0.75C10.0689 0.75 10.46 1.14102 10.46 1.625V2.5H11.7725C12.4971 2.5 13.085 3.08789 13.085 3.8125V5.125H0.834961V3.8125C0.834961 3.08789 1.42285 2.5 2.14746 2.5H3.45996V1.625C3.45996 1.14102 3.85098 0.75 4.33496 0.75ZM0.834961 6H13.085V13.4375C13.085 14.1621 12.4971 14.75 11.7725 14.75H2.14746C1.42285 14.75 0.834961 14.1621 0.834961 13.4375V6ZM2.58496 8.1875V9.0625C2.58496 9.30313 2.78184 9.5 3.02246 9.5H3.89746C4.13809 9.5 4.33496 9.30313 4.33496 9.0625V8.1875C4.33496 7.94688 4.13809 7.75 3.89746 7.75H3.02246C2.78184 7.75 2.58496 7.94688 2.58496 8.1875ZM6.08496 8.1875V9.0625C6.08496 9.30313 6.28184 9.5 6.52246 9.5H7.39746C7.63809 9.5 7.83496 9.30313 7.83496 9.0625V8.1875C7.83496 7.94688 7.63809 7.75 7.39746 7.75H6.52246C6.28184 7.75 6.08496 7.94688 6.08496 8.1875ZM10.0225 7.75C9.78184 7.75 9.58496 7.94688 9.58496 8.1875V9.0625C9.58496 9.30313 9.78184 9.5 10.0225 9.5H10.8975C11.1381 9.5 11.335 9.30313 11.335 9.0625V8.1875C11.335 7.94688 11.1381 7.75 10.8975 7.75H10.0225ZM2.58496 11.6875V12.5625C2.58496 12.8031 2.78184 13 3.02246 13H3.89746C4.13809 13 4.33496 12.8031 4.33496 12.5625V11.6875C4.33496 11.4469 4.13809 11.25 3.89746 11.25H3.02246C2.78184 11.25 2.58496 11.4469 2.58496 11.6875ZM6.52246 11.25C6.28184 11.25 6.08496 11.4469 6.08496 11.6875V12.5625C6.08496 12.8031 6.28184 13 6.52246 13H7.39746C7.63809 13 7.83496 12.8031 7.83496 12.5625V11.6875C7.83496 11.4469 7.63809 11.25 7.39746 11.25H6.52246ZM9.58496 11.6875V12.5625C9.58496 12.8031 9.78184 13 10.0225 13H10.8975C11.1381 13 11.335 12.8031 11.335 12.5625V11.6875C11.335 11.4469 11.1381 11.25 10.8975 11.25H10.0225C9.78184 11.25 9.58496 11.4469 9.58496 11.6875Z" fill="#6B7280"/>
</svg>
