<svg width="34" height="40" viewBox="0 0 34 40" fill="none" xmlns="http://www.w3.org/2000/svg">
<rect x="0.665039" width="33.13" height="40" rx="16.565" fill="#DBEAFE"/>
<path d="M13.23 12C12.1269 12 11.23 12.8969 11.23 14V26C11.23 27.1031 12.1269 28 13.23 28H21.23C22.3331 28 23.23 27.1031 23.23 26V17H19.23C18.6769 17 18.23 16.5531 18.23 16V12H13.23ZM19.23 12V16H23.23L19.23 12ZM13.73 14H15.73C16.005 14 16.23 14.225 16.23 14.5C16.23 14.775 16.005 15 15.73 15H13.73C13.455 15 13.23 14.775 13.23 14.5C13.23 14.225 13.455 14 13.73 14ZM13.73 16H15.73C16.005 16 16.23 16.225 16.23 16.5C16.23 16.775 16.005 17 15.73 17H13.73C13.455 17 13.23 16.775 13.23 16.5C13.23 16.225 13.455 16 13.73 16ZM15.4237 23.9312C15.2331 24.5656 14.6487 25 13.9862 25H13.73C13.455 25 13.23 24.775 13.23 24.5C13.23 24.225 13.455 24 13.73 24H13.9862C14.2081 24 14.4019 23.8562 14.4644 23.6438L14.93 22.0969C15.0362 21.7438 15.3612 21.5 15.73 21.5C16.0987 21.5 16.4237 21.7406 16.53 22.0969L16.8925 23.3031C17.1237 23.1094 17.4175 23 17.73 23C18.2269 23 18.68 23.2812 18.9019 23.725L19.0394 24H20.73C21.005 24 21.23 24.225 21.23 24.5C21.23 24.775 21.005 25 20.73 25H18.73C18.5394 25 18.3675 24.8938 18.2831 24.725L18.0081 24.1719C17.955 24.0656 17.8487 24 17.7331 24C17.6175 24 17.5081 24.0656 17.4581 24.1719L17.1831 24.725C17.0925 24.9094 16.8956 25.0188 16.6925 25C16.4894 24.9812 16.3144 24.8406 16.2581 24.6469L15.73 22.9062L15.4237 23.9312Z" fill="#1D4ED8"/>
</svg>
