<svg width="48" height="48" viewBox="0 0 48 48" fill="none" xmlns="http://www.w3.org/2000/svg">
<rect width="48" height="48" rx="24" fill="#DBEAFE"/>
<path d="M24.1062 18.6625L21.0813 21.1125C20.5781 21.5188 20.4813 22.25 20.8625 22.7719C21.2656 23.3281 22.05 23.4375 22.5906 23.0156L25.6938 20.6031C25.9125 20.4344 26.225 20.4719 26.3969 20.6906C26.5688 20.9094 26.5281 21.2219 26.3094 21.3938L25.6562 21.9L30 25.9V20H29.9781L29.8562 19.9219L27.5875 18.4688C27.1094 18.1625 26.55 18 25.9812 18C25.3 18 24.6375 18.2344 24.1062 18.6625ZM24.8188 22.55L23.2031 23.8063C22.2188 24.575 20.7906 24.375 20.0531 23.3625C19.3594 22.4094 19.5344 21.0781 20.45 20.3375L23.05 18.2344C22.6875 18.0812 22.2969 18.0031 21.9 18.0031C21.3125 18 20.7406 18.175 20.25 18.5L18 20V27H18.8812L21.7375 29.6062C22.35 30.1656 23.2969 30.1219 23.8562 29.5094C24.0281 29.3187 24.1438 29.0969 24.2031 28.8656L24.7344 29.3531C25.3438 29.9125 26.2937 29.8719 26.8531 29.2625C26.9937 29.1094 27.0969 28.9312 27.1625 28.7469C27.7688 29.1531 28.5938 29.0687 29.1031 28.5125C29.6625 27.9031 29.6219 26.9531 29.0125 26.3938L24.8188 22.55ZM14.5 20C14.225 20 14 20.225 14 20.5V27C14 27.5531 14.4469 28 15 28H16C16.5531 28 17 27.5531 17 27V20H14.5ZM15.5 26C15.6326 26 15.7598 26.0527 15.8536 26.1464C15.9473 26.2402 16 26.3674 16 26.5C16 26.6326 15.9473 26.7598 15.8536 26.8536C15.7598 26.9473 15.6326 27 15.5 27C15.3674 27 15.2402 26.9473 15.1464 26.8536C15.0527 26.7598 15 26.6326 15 26.5C15 26.3674 15.0527 26.2402 15.1464 26.1464C15.2402 26.0527 15.3674 26 15.5 26ZM31 20V27C31 27.5531 31.4469 28 32 28H33C33.5531 28 34 27.5531 34 27V20.5C34 20.225 33.775 20 33.5 20H31ZM32 26.5C32 26.3674 32.0527 26.2402 32.1464 26.1464C32.2402 26.0527 32.3674 26 32.5 26C32.6326 26 32.7598 26.0527 32.8536 26.1464C32.9473 26.2402 33 26.3674 33 26.5C33 26.6326 32.9473 26.7598 32.8536 26.8536C32.7598 26.9473 32.6326 27 32.5 27C32.3674 27 32.2402 26.9473 32.1464 26.8536C32.0527 26.7598 32 26.6326 32 26.5Z" fill="#1D4ED8"/>
</svg>
