<svg width="28" height="24" viewBox="0 0 28 24" fill="none" xmlns="http://www.w3.org/2000/svg">
<path d="M10.1062 6.6625L7.08125 9.1125C6.57812 9.51875 6.48125 10.25 6.8625 10.7719C7.26562 11.3281 8.05 11.4375 8.59062 11.0156L11.6938 8.60313C11.9125 8.43438 12.225 8.47188 12.3969 8.69063C12.5688 8.90938 12.5281 9.22188 12.3094 9.39375L11.6562 9.9L16 13.9V8H15.9781L15.8562 7.92188L13.5875 6.46875C13.1094 6.1625 12.55 6 11.9812 6C11.3 6 10.6375 6.23437 10.1062 6.6625ZM10.8188 10.55L9.20312 11.8063C8.21875 12.575 6.79063 12.375 6.05312 11.3625C5.35938 10.4094 5.53437 9.07812 6.45 8.3375L9.05 6.23438C8.6875 6.08125 8.29688 6.00312 7.9 6.00312C7.3125 6 6.74062 6.175 6.25 6.5L4 8V15H4.88125L7.7375 17.6062C8.35 18.1656 9.29688 18.1219 9.85625 17.5094C10.0281 17.3187 10.1438 17.0969 10.2031 16.8656L10.7344 17.3531C11.3438 17.9125 12.2937 17.8719 12.8531 17.2625C12.9937 17.1094 13.0969 16.9312 13.1625 16.7469C13.7688 17.1531 14.5938 17.0687 15.1031 16.5125C15.6625 15.9031 15.6219 14.9531 15.0125 14.3938L10.8188 10.55ZM0.5 8C0.225 8 0 8.225 0 8.5V15C0 15.5531 0.446875 16 1 16H2C2.55312 16 3 15.5531 3 15V8H0.5ZM1.5 14C1.63261 14 1.75979 14.0527 1.85355 14.1464C1.94732 14.2402 2 14.3674 2 14.5C2 14.6326 1.94732 14.7598 1.85355 14.8536C1.75979 14.9473 1.63261 15 1.5 15C1.36739 15 1.24021 14.9473 1.14645 14.8536C1.05268 14.7598 1 14.6326 1 14.5C1 14.3674 1.05268 14.2402 1.14645 14.1464C1.24021 14.0527 1.36739 14 1.5 14ZM17 8V15C17 15.5531 17.4469 16 18 16H19C19.5531 16 20 15.5531 20 15V8.5C20 8.225 19.775 8 19.5 8H17ZM18 14.5C18 14.3674 18.0527 14.2402 18.1464 14.1464C18.2402 14.0527 18.3674 14 18.5 14C18.6326 14 18.7598 14.0527 18.8536 14.1464C18.9473 14.2402 19 14.3674 19 14.5C19 14.6326 18.9473 14.7598 18.8536 14.8536C18.7598 14.9473 18.6326 15 18.5 15C18.3674 15 18.2402 14.9473 18.1464 14.8536C18.0527 14.7598 18 14.6326 18 14.5Z" fill="#22C55E"/>
</svg>
