<svg width="48" height="48" viewBox="0 0 48 48" fill="none" xmlns="http://www.w3.org/2000/svg">
<rect width="48" height="48" rx="24" fill="#DCFCE7"/>
<path d="M32.9937 23.9844C32.9937 24.5469 32.525 24.9875 31.9937 24.9875H30.9937L31.0156 29.9937C31.0156 30.0781 31.0094 30.1625 31 30.2469V30.75C31 31.4406 30.4406 32 29.75 32H29.25C29.2156 32 29.1813 32 29.1469 31.9969C29.1031 32 29.0594 32 29.0156 32H28H27.25C26.5594 32 26 31.4406 26 30.75V30V28C26 27.4469 25.5531 27 25 27H23C22.4469 27 22 27.4469 22 28V30V30.75C22 31.4406 21.4406 32 20.75 32H20H19.0031C18.9563 32 18.9094 31.9969 18.8625 31.9937C18.825 31.9969 18.7875 32 18.75 32H18.25C17.5594 32 17 31.4406 17 30.75V27.25C17 27.2219 17 27.1906 17.0031 27.1625V24.9875H16C15.4375 24.9875 15 24.55 15 23.9844C15 23.7031 15.0938 23.4531 15.3125 23.2344L23.325 16.25C23.5437 16.0312 23.7937 16 24.0125 16C24.2312 16 24.4812 16.0625 24.6687 16.2188L32.65 23.2344C32.9 23.4531 33.025 23.7031 32.9937 23.9844Z" fill="#10B981"/>
</svg>
