<svg width="36" height="40" viewBox="0 0 36 40" fill="none" xmlns="http://www.w3.org/2000/svg">
<rect x="0.665039" width="35.03" height="40" rx="17.515" fill="#DBEAFE"/>
<path d="M21.1801 17.5C21.1801 20.5375 18.2707 23 14.6801 23C13.4863 23 12.3707 22.7281 11.4082 22.2531C11.1738 22.3781 10.9082 22.5 10.6207 22.6094C10.0488 22.825 9.3613 23 8.68005 23C8.46443 23 8.27068 22.8594 8.20505 22.6531C8.13943 22.4469 8.2113 22.2219 8.3863 22.0938L8.39255 22.0875C8.3988 22.0812 8.4113 22.075 8.42693 22.0625C8.45818 22.0375 8.50505 22 8.5613 21.9469C8.6738 21.8438 8.82693 21.6938 8.97693 21.5C9.1488 21.2812 9.3113 21.0187 9.42068 20.7281C8.63943 19.8219 8.18005 18.7063 8.18005 17.5C8.18005 14.4625 11.0894 12 14.6801 12C18.2707 12 21.1801 14.4625 21.1801 17.5ZM15.4144 23.9688C19.0832 23.6531 22.1801 21.0094 22.1801 17.5C22.1801 17.3375 22.1738 17.175 22.1613 17.0156C25.5269 17.2219 28.1801 19.6 28.1801 22.5C28.1801 23.7063 27.7207 24.8219 26.9426 25.7312C27.0519 26.025 27.2144 26.2844 27.3863 26.5031C27.5363 26.6969 27.6894 26.8469 27.8019 26.95C27.8582 27 27.9051 27.0406 27.9363 27.0656C27.9519 27.0781 27.9644 27.0875 27.9707 27.0906L27.9769 27.0969C28.1519 27.225 28.2238 27.45 28.1582 27.6562C28.0926 27.8625 27.8988 28.0031 27.6832 28.0031C27.0019 28.0031 26.3144 27.8281 25.7426 27.6125C25.4551 27.5031 25.1863 27.3813 24.9551 27.2563C23.9894 27.7281 22.8738 28 21.6801 28C18.6926 28 16.1738 26.2937 15.4144 23.9688ZM15.3051 14.25C15.3051 13.9062 15.0238 13.625 14.6801 13.625C14.3363 13.625 14.0551 13.9062 14.0551 14.25V14.6875C13.8176 14.7406 13.5801 14.825 13.3613 14.9531C12.9269 15.2125 12.5519 15.6656 12.5551 16.325C12.5582 16.9594 12.9301 17.3594 13.3269 17.5969C13.6707 17.8031 14.0988 17.9344 14.4394 18.0344L14.4926 18.05C14.8863 18.1688 15.1738 18.2625 15.3676 18.3844C15.5269 18.4844 15.5488 18.5531 15.5519 18.6406C15.5551 18.7969 15.4957 18.8906 15.3676 18.9688C15.2113 19.0656 14.9644 19.125 14.6988 19.1156C14.3519 19.1031 14.0269 18.9938 13.6019 18.85C13.5301 18.825 13.4551 18.8 13.3769 18.775C13.0488 18.6656 12.6957 18.8438 12.5863 19.1687C12.4769 19.4937 12.6551 19.85 12.9801 19.9594C13.0394 19.9781 13.1051 20 13.1707 20.025C13.4301 20.1156 13.7301 20.2188 14.0519 20.2875V20.75C14.0519 21.0938 14.3332 21.375 14.6769 21.375C15.0207 21.375 15.3019 21.0938 15.3019 20.75V20.3188C15.5519 20.2656 15.8019 20.1781 16.0269 20.0375C16.4738 19.7594 16.8113 19.2844 16.8019 18.6312C16.7926 17.9969 16.4363 17.5875 16.0332 17.3313C15.6738 17.1063 15.2238 16.9688 14.8738 16.8625L14.8519 16.8562C14.4519 16.7344 14.1676 16.6469 13.9676 16.5281C13.8051 16.4312 13.8019 16.375 13.8019 16.3187C13.8019 16.2031 13.8457 16.1156 13.9957 16.0281C14.1644 15.9281 14.4207 15.8688 14.6676 15.8719C14.9676 15.875 15.2988 15.9406 15.6426 16.0344C15.9769 16.1219 16.3176 15.925 16.4082 15.5906C16.4988 15.2563 16.2988 14.9156 15.9644 14.825C15.7613 14.7719 15.5363 14.7188 15.3051 14.6781V14.25Z" fill="#1D4ED8"/>
</svg>
