<svg width="32" height="40" viewBox="0 0 32 40" fill="none" xmlns="http://www.w3.org/2000/svg">
<rect x="0.665039" width="31.28" height="40" rx="15.64" fill="#DBEAFE"/>
<path d="M16.3051 12C16.4488 12 16.5926 12.0313 16.7238 12.0906L22.6082 14.5875C23.2957 14.8781 23.8082 15.5563 23.8051 16.375C23.7894 19.475 22.5144 25.1469 17.1301 27.725C16.6082 27.975 16.0019 27.975 15.4801 27.725C10.0957 25.1469 8.82069 19.475 8.80507 16.375C8.80194 15.5563 9.31444 14.8781 10.0019 14.5875L15.8894 12.0906C16.0176 12.0313 16.1613 12 16.3051 12ZM16.3051 14.0875V25.9C20.6176 23.8125 21.7769 19.1906 21.8051 16.4187L16.3051 14.0875Z" fill="#1D4ED8"/>
</svg>
