<svg width="19" height="16" viewBox="0 0 19 16" fill="none" xmlns="http://www.w3.org/2000/svg">
<path d="M10.7331 0.5625C10.5675 0.21875 10.2175 0 9.83311 0C9.44874 0 9.10186 0.21875 8.93311 0.5625L6.92374 4.69688L2.43624 5.35938C2.06124 5.41563 1.74874 5.67812 1.63311 6.0375C1.51749 6.39687 1.61124 6.79375 1.87999 7.05937L5.13624 10.2812L4.36749 14.8344C4.30499 15.2094 4.46124 15.5906 4.77061 15.8125C5.07999 16.0344 5.48936 16.0625 5.82686 15.8844L9.83624 13.7437L13.8456 15.8844C14.1831 16.0625 14.5925 16.0375 14.9019 15.8125C15.2112 15.5875 15.3675 15.2094 15.305 14.8344L14.5331 10.2812L17.7894 7.05937C18.0581 6.79375 18.155 6.39687 18.0362 6.0375C17.9175 5.67812 17.6081 5.41563 17.2331 5.35938L12.7425 4.69688L10.7331 0.5625Z" fill="#FACC15"/>
</svg>
